<svg xmlns="http://www.w3.org/2000/svg" version="1.1" viewBox="-5.0 -10.0 110.0 135.0">
 <path d="m90.875 73.078-32.344-56.016c-1.75-3.0312-5.0312-4.9219-8.5312-4.9219s-6.7812 1.8906-8.5312 4.9219l-32.344 56.016c-1.75 3.0469-1.75 6.8125 0 9.8594 1.75 3.0312 5.0312 4.9219 8.5312 4.9219h64.688c3.5 0 6.7812-1.8906 8.5312-4.9219 1.75-3.0469 1.75-6.8125 0-9.8594zm-2.7031 8.2969c-1.2031 2.0625-3.4375 3.3594-5.8281 3.3594h-64.688c-2.3906 0-4.625-1.2969-5.8281-3.3594-1.1875-2.0781-1.1875-4.6562 0-6.7344l32.344-56.016c1.2031-2.0625 3.4375-3.3594 5.8281-3.3594s4.625 1.2969 5.8281 3.3594l32.344 56.016c1.1875 2.0781 1.1875 4.6562 0 6.7344z"/>
 <path d="m53.125 20.188c-0.64062-1.1094-1.8438-1.7969-3.125-1.7969s-2.4688 0.6875-3.1094 1.7969l-32.344 56.016c-0.64062 1.1094-0.64062 2.5 0 3.6094s1.8281 1.7969 3.1094 1.7969h64.688c1.2812 0 2.4688-0.6875 3.1094-1.7969s0.64062-2.5 0-3.6094zm-7.8125 48.391c0-2.5938 2.1094-4.6875 4.6875-4.6875s4.6875 2.0938 4.6875 4.6875-2.1094 4.6875-4.6875 4.6875-4.6875-2.1094-4.6875-4.6875zm9.375-12.5c0 2.5781-2.1094 4.6875-4.6875 4.6875s-4.6875-2.1094-4.6875-4.6875v-17.188c0-2.5938 2.1094-4.6875 4.6875-4.6875s4.6875 2.0938 4.6875 4.6875z"/>
 <path d="m23.484 27.766c-1.7031 2.125-2.4688 4.7656-2.1719 7.4688 0.09375 0.79688 0.76562 1.3906 1.5469 1.3906h0.17188c0.85938-0.09375 1.4688-0.875 1.375-1.7188-0.42188-3.8594 2.3594-7.3438 6.2188-7.7656 0.85938-0.09375 1.4688-0.875 1.375-1.7188-0.09375-0.85938-0.875-1.4844-1.7188-1.375-2.6875 0.29688-5.1094 1.625-6.8125 3.75z"/>
 <path d="m13.547 37.656h0.17188c0.85938-0.09375 1.4688-0.875 1.375-1.7188-0.48438-4.3594 0.75-8.6406 3.5-12.062 2.7344-3.4219 6.6406-5.5781 11-6.0625 0.85938-0.09375 1.4688-0.875 1.375-1.7188-0.09375-0.85938-0.875-1.4844-1.7188-1.375-10.703 1.1875-18.438 10.859-17.25 21.562 0.09375 0.79688 0.76562 1.3906 1.5469 1.3906z"/>
 <path d="m69.375 27.125c3.8594 0.42188 6.6406 3.9062 6.2188 7.7656-0.09375 0.85938 0.51562 1.625 1.375 1.7188h0.17188c0.78125 0 1.4688-0.59375 1.5469-1.3906 0.29688-2.6875-0.46875-5.3438-2.1719-7.4688s-4.1094-3.4531-6.8125-3.75c-0.85938-0.09375-1.625 0.51562-1.7188 1.375s0.51562 1.625 1.375 1.7188z"/>
 <path d="m70.406 17.797c4.3594 0.48438 8.2656 2.6406 11 6.0625s3.9844 7.7031 3.5 12.062c-0.09375 0.85938 0.51562 1.625 1.375 1.7188h0.17188c0.78125 0 1.4688-0.59375 1.5469-1.3906 1.1875-10.703-6.5469-20.375-17.25-21.562-0.84375-0.09375-1.625 0.51562-1.7188 1.375s0.51562 1.625 1.375 1.7188z"/>
<text x="0.0" y="117.5" font-size="5.0" font-weight="bold" font-family="Arbeit Regular, Helvetica, Arial-Unicode, Arial, Sans-serif" fill="#000000">Created by Yosua Bungaran</text><text x="0.0" y="122.5" font-size="5.0" font-weight="bold" font-family="Arbeit Regular, Helvetica, Arial-Unicode, Arial, Sans-serif" fill="#000000">from Noun Project</text></svg>