<svg xmlns="http://www.w3.org/2000/svg" xmlns:xlink="http://www.w3.org/1999/xlink" version="1.1" x="0px" y="0px" viewBox="-5.0 -10.0 110.0 135.0" style="enable-background:new 0 0 100 100;" xml:space="preserve"><path d="M32.286,69.037H15.058c-0.853,0-1.544,0.691-1.544,1.544v22.874c0,0.853,0.691,1.544,1.544,1.544h17.228  c0.853,0,1.544-0.691,1.544-1.544V70.581C33.831,69.728,33.139,69.037,32.286,69.037z M30.742,91.911h-14.14V72.126h14.14V91.911z   M62.861,60.053H45.633c-0.853,0-1.544,0.691-1.544,1.544v31.858c0,0.853,0.691,1.544,1.544,1.544h17.228  c0.853,0,1.544-0.691,1.544-1.544V61.597C64.405,60.744,63.714,60.053,62.861,60.053z M61.317,91.911h-14.14v-28.77h14.14V91.911z   M93.435,51.069H76.207c-0.853,0-1.544,0.691-1.544,1.544v40.842c0,0.853,0.691,1.544,1.544,1.544h17.228  c0.853,0,1.544-0.691,1.544-1.544V52.613C94.979,51.76,94.288,51.069,93.435,51.069z M91.891,91.911H77.752V54.157h14.139V91.911z   M21.298,37.874c0,1.068,0.914,1.584,2.999,2.506c2.042,0.903,4.839,2.14,4.839,5.331c0,2.476-1.657,4.569-3.919,5.238v1.192  c0,0.853-0.691,1.544-1.544,1.544s-1.544-0.691-1.544-1.544v-1.192c-2.262-0.668-3.919-2.762-3.919-5.238  c0-0.853,0.691-1.544,1.544-1.544c0.853,0,1.544,0.691,1.544,1.544c0,1.309,1.065,2.375,2.374,2.375  c1.309,0,2.375-1.066,2.375-2.375c0-1.069-0.914-1.584-2.999-2.506c-2.042-0.903-4.839-2.139-4.839-5.331  c0-2.476,1.657-4.57,3.919-5.238v-1.192c0-0.853,0.691-1.544,1.544-1.544s1.544,0.691,1.544,1.544v1.183  c0.887,0.253,1.696,0.723,2.357,1.388c1.016,1.022,1.571,2.396,1.562,3.868c-0.005,0.85-0.696,1.535-1.544,1.535  c-0.004,0-0.007,0-0.01,0c-0.853-0.005-1.54-0.701-1.535-1.554c0.004-0.643-0.232-1.237-0.664-1.672  c-0.445-0.447-1.052-0.694-1.711-0.694C22.363,35.499,21.298,36.564,21.298,37.874z M79.818,38.67c0-1.859-0.593-3.581-1.593-4.998  l13.023-13.024l-0.315,2.197c-0.121,0.844,0.465,1.627,1.309,1.748c0.075,0.011,0.148,0.016,0.222,0.016  c0.756,0,1.416-0.555,1.527-1.325l0.974-6.788c0.069-0.482-0.093-0.967-0.437-1.311c-0.344-0.344-0.828-0.507-1.311-0.437  l-6.788,0.974c-0.844,0.121-1.43,0.904-1.309,1.748c0.121,0.844,0.904,1.429,1.748,1.309l2.197-0.315L76.03,31.499  c-1.418-0.978-3.135-1.555-4.987-1.555c-1.734,0-3.348,0.509-4.71,1.376L54.809,14.478c0.652-0.969,1.034-2.132,1.034-3.383  C55.843,7.734,53.095,5,49.717,5c-3.378,0-6.126,2.734-6.126,6.095c0,1.266,0.39,2.442,1.057,3.417L34.298,26.474  c-3.099-2.159-6.77-3.334-10.626-3.334c-4.982,0-9.666,1.94-13.189,5.463C6.96,32.126,5.02,36.81,5.02,41.792  s1.94,9.666,5.463,13.189c3.636,3.636,8.412,5.454,13.189,5.454s9.553-1.818,13.189-5.454c7.272-7.273,7.272-19.106,0-26.378  c-0.058-0.058-0.121-0.106-0.18-0.163l10.296-11.902c0.825,0.413,1.754,0.651,2.739,0.651c0.992,0,1.926-0.241,2.755-0.659  l11.566,16.904c-1.106,1.46-1.771,3.269-1.771,5.234c0,4.812,3.937,8.726,8.775,8.726S79.818,43.481,79.818,38.67z M34.677,52.798  c-6.068,6.068-15.942,6.068-22.01,0c-2.939-2.94-4.558-6.848-4.558-11.005s1.619-8.065,4.558-11.005  c2.94-2.939,6.848-4.558,11.005-4.558s8.066,1.619,11.005,4.558C40.746,36.856,40.746,46.729,34.677,52.798z M46.679,11.095  c0-1.657,1.362-3.006,3.038-3.006c1.675,0,3.038,1.349,3.038,3.006c0,1.658-1.362,3.007-3.038,3.007  C48.042,14.101,46.679,12.753,46.679,11.095z M71.043,44.307c-3.136,0-5.687-2.529-5.687-5.638c0-3.108,2.551-5.637,5.687-5.637  s5.687,2.529,5.687,5.637C76.729,41.778,74.178,44.307,71.043,44.307z"/><text x="0.0" y="117.5" font-size="5.0" font-weight="bold" font-family="Arbeit Regular, Helvetica, Arial-Unicode, Arial, Sans-serif" fill="#000000">Created by Arto Moro</text><text x="0.0" y="122.5" font-size="5.0" font-weight="bold" font-family="Arbeit Regular, Helvetica, Arial-Unicode, Arial, Sans-serif" fill="#000000">from Noun Project</text></svg>