<svg xmlns="http://www.w3.org/2000/svg" data-name="Layer 1" viewBox="-5.0 -10.0 110.0 135.0" x="0px" y="0px"><title>A</title><path d="M22.7,33.684H51.189a1.854,1.854,0,0,0,1.854-1.853v-9.99a1.854,1.854,0,0,0-1.854-1.854H22.7a1.854,1.854,0,0,0-1.854,1.854v9.99A1.854,1.854,0,0,0,22.7,33.684ZM24.553,23.7H49.335v6.282H24.553Zm26.57,16.6a1.854,1.854,0,0,1-1.854,1.853H24.619a1.854,1.854,0,0,1,0-3.707h24.65A1.854,1.854,0,0,1,51.123,40.293Zm0,7.542a1.854,1.854,0,0,1-1.854,1.854H24.619a1.854,1.854,0,0,1,0-3.708h24.65A1.854,1.854,0,0,1,51.123,47.835Zm40.746,18.4L74.362,60.489V11.333a1.854,1.854,0,0,0-1.854-1.854H67.034V6.854A1.854,1.854,0,0,0,65.18,5H15.117a8.272,8.272,0,0,0-8.262,8.262V78.084a6.34,6.34,0,0,0,6.333,6.333H34.46v8.729A1.854,1.854,0,0,0,36.314,95H75.527a1.854,1.854,0,0,0,1.854-1.854V74.506L85.635,71.8v7.059a1.854,1.854,0,0,0,3.708,0V70.582l2.526-.828a1.854,1.854,0,0,0,0-3.523ZM70.654,13.187V59.273l-3.62-1.188v-44.9ZM15.117,8.708H63.326V56.869L56.5,54.63a1.857,1.857,0,0,0-1.156,0l-35.37,11.6a1.854,1.854,0,0,0,0,3.523l6.089,2H13.188a6.3,6.3,0,0,0-2.625.572V13.262A4.559,4.559,0,0,1,15.117,8.708Zm-1.929,72a2.625,2.625,0,0,1,0-5.25H34.46v5.25Zm24.98,10.583V88.463H73.673v2.829Zm35.505-6.537H38.168V75.722l17.174,5.633a1.862,1.862,0,0,0,1.156,0l17.175-5.633Zm1.688-13.489a1.828,1.828,0,0,0-.79.259L55.92,77.642l-17.7-5.8-.014,0-.94-.308a1.824,1.824,0,0,0-.789-.259L26.5,67.992l29.422-9.65,8.7,2.853.016.005,20.708,6.792Z"/><text x="0.0" y="117.5" font-size="5.0" font-weight="bold" font-family="Arbeit Regular, Helvetica, Arial-Unicode, Arial, Sans-serif" fill="#000000">Created by Icon Designer</text><text x="0.0" y="122.5" font-size="5.0" font-weight="bold" font-family="Arbeit Regular, Helvetica, Arial-Unicode, Arial, Sans-serif" fill="#000000">from Noun Project</text></svg>