<svg xmlns="http://www.w3.org/2000/svg" xmlns:xlink="http://www.w3.org/1999/xlink" version="1.1" x="0px" y="0px" viewBox="0 0 100 125" style="enable-background:new 0 0 100 100;" xml:space="preserve"><g><path d="M-6077.9,50c5.8-1.2,6.7-2.1,7.9-7.9c1.2,5.8,2.1,6.7,7.9,7.9c-5.8,1.2-6.7,2.1-7.9,7.9   C-6071.2,52.1-6072.1,51.2-6077.9,50z"/></g><g><path d="M-5958.7,50c6.4-1.3,7.4-2.3,8.7-8.7c1.3,6.4,2.3,7.4,8.7,8.7c-6.4,1.3-7.4,2.3-8.7,8.7   C-5951.3,52.3-5952.3,51.3-5958.7,50z"/></g><g><path d="M-5839.5,50c7-1.4,8.1-2.5,9.5-9.5c1.4,7,2.5,8.1,9.5,9.5c-7,1.4-8.1,2.5-9.5,9.5C-5831.4,52.5-5832.5,51.4-5839.5,50z"/></g><g><path d="M-5720.3,50c7.5-1.5,8.8-2.7,10.3-10.3c1.5,7.5,2.7,8.8,10.3,10.3c-7.5,1.5-8.8,2.7-10.3,10.3   C-5711.5,52.7-5712.7,51.5-5720.3,50z"/></g><g><path d="M-5601.1,50c8.1-1.6,9.4-2.9,11.1-11.1c1.6,8.1,2.9,9.4,11.1,11.1c-8.1,1.6-9.4,2.9-11.1,11.1   C-5591.6,52.9-5592.9,51.6-5601.1,50z"/></g><g><path d="M-5481.9,50c8.7-1.7,10.1-3.2,11.9-11.8c1.7,8.7,3.1,10.1,11.9,11.8c-8.7,1.7-10.1,3.2-11.9,11.8   C-5471.7,53.2-5473.1,51.7-5481.9,50z"/></g><g><path d="M-5362.6,50c9.3-1.9,10.8-3.4,12.6-12.6c1.9,9.3,3.4,10.8,12.6,12.6c-9.3,1.9-10.8,3.4-12.6,12.6   C-5351.9,53.4-5353.4,51.9-5362.6,50z"/></g><g><path d="M-5243.4,50c9.9-2,11.5-3.6,13.4-13.4c2,9.9,3.6,11.5,13.4,13.4c-9.9,2-11.5,3.6-13.4,13.4C-5232,53.6-5233.6,52-5243.4,50   z"/></g><g><path d="M-5124.2,50c10.4-2.1,12.1-3.8,14.2-14.2c2.1,10.4,3.8,12.1,14.2,14.2c-10.4,2.1-12.1,3.8-14.2,14.2   C-5112.1,53.8-5113.8,52.1-5124.2,50z"/></g><g><path d="M-5005,50c11-2.2,12.8-4,15-15c2.2,11,4,12.8,15,15c-11,2.2-12.8,4-15,15C-4992.2,54-4994,52.2-5005,50z"/></g><g><path d="M-4885.8,50c11.6-2.3,13.5-4.2,15.8-15.8c2.3,11.6,4.2,13.5,15.8,15.8c-11.6,2.3-13.5,4.2-15.8,15.8   C-4872.3,54.2-4874.2,52.3-4885.8,50z"/></g><g><path d="M-4766.6,50c12.2-2.4,14.2-4.4,16.6-16.6c2.4,12.2,4.4,14.2,16.6,16.6c-12.2,2.4-14.2,4.4-16.6,16.6   C-4752.4,54.4-4754.4,52.4-4766.6,50z"/></g><g><path d="M-4647.4,50c12.8-2.6,14.8-4.6,17.4-17.4c2.6,12.8,4.6,14.8,17.4,17.4c-12.8,2.6-14.8,4.6-17.4,17.4   C-4632.6,54.6-4634.6,52.6-4647.4,50z"/></g><g><path d="M-4528.2,50c13.3-2.7,15.5-4.8,18.2-18.2c2.7,13.3,4.8,15.5,18.2,18.2c-13.3,2.7-15.5,4.8-18.2,18.2   C-4512.7,54.8-4514.8,52.7-4528.2,50z"/></g><g><path d="M-4409,50c13.9-2.8,16.2-5,19-19c2.8,13.9,5,16.2,19,19c-13.9,2.8-16.2,5-19,19C-4392.8,55-4395,52.8-4409,50z"/></g><g><path d="M-4289.8,50c14.5-2.9,16.9-5.2,19.8-19.8c2.9,14.5,5.2,16.9,19.8,19.8c-14.5,2.9-16.9,5.2-19.8,19.8   C-4272.9,55.2-4275.2,52.9-4289.8,50z"/></g><g><path d="M-4170.5,50c15.1-3,17.5-5.5,20.5-20.5c3,15.1,5.5,17.5,20.5,20.5c-15.1,3-17.5,5.5-20.5,20.5   C-4153,55.5-4155.5,53-4170.5,50z"/></g><g><path d="M-4051.3,50c15.7-3.1,18.2-5.7,21.3-21.3c3.1,15.7,5.7,18.2,21.3,21.3c-15.7,3.1-18.2,5.7-21.3,21.3   C-4033.1,55.7-4035.7,53.1-4051.3,50z"/></g><g><path d="M-3932.1,50c16.2-3.2,18.9-5.9,22.1-22.1c3.2,16.2,5.9,18.9,22.1,22.1c-16.2,3.2-18.9,5.9-22.1,22.1   C-3913.2,55.9-3915.9,53.2-3932.1,50z"/></g><g><path d="M-3812.9,50c16.8-3.4,19.5-6.1,22.9-22.9c3.4,16.8,6.1,19.5,22.9,22.9c-16.8,3.4-19.5,6.1-22.9,22.9   C-3793.4,56.1-3796.1,53.4-3812.9,50z"/></g><g><path d="M-3693.7,50c17.4-3.5,20.2-6.3,23.7-23.7c3.5,17.4,6.3,20.2,23.7,23.7c-17.4,3.5-20.2,6.3-23.7,23.7   C-3673.5,56.3-3676.3,53.5-3693.7,50z"/></g><g><path d="M-3574.5,50c18-3.6,20.9-6.5,24.5-24.5c3.6,18,6.5,20.9,24.5,24.5c-18,3.6-20.9,6.5-24.5,24.5   C-3553.6,56.5-3556.5,53.6-3574.5,50z"/></g><g><path d="M-3455.3,50c18.6-3.7,21.6-6.7,25.3-25.3c3.7,18.6,6.7,21.6,25.3,25.3c-18.6,3.7-21.6,6.7-25.3,25.3   C-3433.7,56.7-3436.7,53.7-3455.3,50z"/></g><g><path d="M-3336.1,50c19.1-3.8,22.2-6.9,26.1-26.1c3.8,19.1,6.9,22.2,26.1,26.1c-19.1,3.8-22.2,6.9-26.1,26.1   C-3313.8,56.9-3316.9,53.8-3336.1,50z"/></g><g><path d="M-3216.9,50c19.7-3.9,22.9-7.1,26.9-26.9c3.9,19.7,7.1,22.9,26.9,26.9c-19.7,3.9-22.9,7.1-26.9,26.9   C-3193.9,57.1-3197.1,53.9-3216.9,50z"/></g><g><path d="M-3097.6,50c20.3-4.1,23.6-7.3,27.6-27.6c4.1,20.3,7.4,23.6,27.6,27.6c-20.3,4.1-23.6,7.3-27.6,27.7   C-3074.1,57.3-3077.4,54.1-3097.6,50z"/></g><g><path d="M-2978.4,50c20.9-4.2,24.3-7.6,28.4-28.4c4.2,20.9,7.6,24.3,28.4,28.4c-20.9,4.2-24.3,7.6-28.4,28.4   C-2954.2,57.6-2957.6,54.2-2978.4,50z"/></g><g><path d="M-2859.2,50c21.5-4.3,24.9-7.8,29.2-29.2c4.3,21.5,7.8,24.9,29.2,29.2c-21.5,4.3-24.9,7.8-29.2,29.2   C-2834.3,57.8-2837.8,54.3-2859.2,50z"/></g><g><path d="M-2740,50c22-4.4,25.6-8,30-30c4.4,22,8,25.6,30,30c-22,4.4-25.6,8-30,30C-2714.4,58-2718,54.4-2740,50z"/></g><g><path d="M-2620.8,50c22.6-4.5,26.3-8.2,30.8-30.8c4.5,22.6,8.2,26.3,30.8,30.8c-22.6,4.5-26.3,8.2-30.8,30.8   C-2594.5,58.2-2598.2,54.5-2620.8,50z"/></g><g><path d="M-2501.6,50c23.2-4.6,27-8.4,31.6-31.6c4.6,23.2,8.4,27,31.6,31.6c-23.2,4.6-27,8.4-31.6,31.6   C-2474.6,58.4-2478.4,54.6-2501.6,50z"/></g><g><path d="M-2382.4,50c23.8-4.8,27.6-8.6,32.4-32.4c4.8,23.8,8.6,27.6,32.4,32.4c-23.8,4.8-27.6,8.6-32.4,32.4   C-2354.8,58.6-2358.6,54.8-2382.4,50z"/></g><g><path d="M-2263.2,50c24.4-4.9,28.3-8.8,33.2-33.2c4.9,24.4,8.8,28.3,33.2,33.2c-24.4,4.9-28.3,8.8-33.2,33.2   C-2234.9,58.8-2238.8,54.9-2263.2,50z"/></g><g><path d="M-2144,50c24.9-5,29-9,34-34c5,24.9,9,29,34,34c-24.9,5-29,9-34,34C-2115,59-2119,55-2144,50z"/></g><g><path d="M-2024.8,50c25.5-5.1,29.7-9.2,34.8-34.8c5.1,25.5,9.2,29.7,34.8,34.8c-25.5,5.1-29.7,9.2-34.8,34.8   C-1995.1,59.2-1999.2,55.1-2024.8,50z"/></g><g><path d="M-1905.6,50c26.1-5.2,30.3-9.5,35.6-35.5c5.2,26.1,9.4,30.3,35.6,35.5c-26.1,5.2-30.3,9.5-35.6,35.6   C-1875.2,59.5-1879.4,55.2-1905.6,50z"/></g><g><path d="M-1786.3,50c26.7-5.3,31-9.7,36.3-36.3c5.3,26.7,9.7,31,36.3,36.3c-26.7,5.3-31,9.7-36.3,36.3   C-1755.3,59.7-1759.7,55.3-1786.3,50z"/></g><g><path d="M-1667.1,50c27.3-5.5,31.7-9.9,37.1-37.1c5.5,27.3,9.9,31.7,37.1,37.1c-27.3,5.5-31.7,9.9-37.1,37.1   C-1635.5,59.9-1639.9,55.5-1667.1,50z"/></g><g><path d="M-1547.9,50c27.8-5.6,32.4-10.1,37.9-37.9c5.6,27.8,10.1,32.4,37.9,37.9c-27.8,5.6-32.4,10.1-37.9,37.9   C-1515.6,60.1-1520.1,55.6-1547.9,50z"/></g><g><path d="M-1428.7,50c28.4-5.7,33-10.3,38.7-38.7c5.7,28.4,10.3,33,38.7,38.7c-28.4,5.7-33,10.3-38.7,38.7   C-1395.7,60.3-1400.3,55.7-1428.7,50z"/></g><g><path d="M-1309.5,50c29-5.8,33.7-10.5,39.5-39.5c5.8,29,10.5,33.7,39.5,39.5c-29,5.8-33.7,10.5-39.5,39.5   C-1275.8,60.5-1280.5,55.8-1309.5,50z"/></g><g><path d="M-1190.3,50c29.6-5.9,34.4-10.7,40.3-40.3c5.9,29.6,10.7,34.4,40.3,40.3c-29.6,5.9-34.4,10.7-40.3,40.3   C-1155.9,60.7-1160.7,55.9-1190.3,50z"/></g><g><path d="M-1071.1,50c30.2-6,35-10.9,41.1-41.1c6,30.2,10.9,35,41.1,41.1c-30.2,6-35,10.9-41.1,41.1C-1036,60.9-1040.9,56-1071.1,50   z"/></g><g><path d="M-951.9,50c30.7-6.1,35.7-11.1,41.9-41.9c6.1,30.7,11.1,35.7,41.9,41.9c-30.7,6.1-35.7,11.1-41.9,41.9   C-916.1,61.1-921.1,56.1-951.9,50z"/></g><g><path d="M-832.7,50c31.3-6.3,36.4-11.3,42.7-42.7c6.3,31.3,11.3,36.4,42.7,42.7c-31.3,6.3-36.4,11.3-42.7,42.7   C-796.3,61.3-801.3,56.3-832.7,50z"/></g><g><path d="M-713.5,50c31.9-6.4,37.1-11.5,43.5-43.5c6.4,31.9,11.5,37.1,43.5,43.5c-31.9,6.4-37.1,11.5-43.5,43.4   C-676.4,61.5-681.5,56.4-713.5,50z"/></g><g><path d="M-594.2,50c32.5-6.5,37.7-11.8,44.2-44.2c6.5,32.5,11.8,37.7,44.2,44.2c-32.5,6.5-37.7,11.8-44.2,44.2   C-556.5,61.8-561.8,56.5-594.2,50z"/></g><g><path d="M-475,50c33.1-6.6,38.4-12,45-45c6.6,33.1,12,38.4,45,45c-33.1,6.6-38.4,12-45,45C-436.6,62-442,56.6-475,50z"/></g><g><path d="M-355.8,50c33.6-6.7,39.1-12.2,45.8-45.8c6.7,33.6,12.2,39.1,45.8,45.8c-33.6,6.7-39.1,12.2-45.8,45.8   C-316.7,62.2-322.2,56.7-355.8,50z"/></g><g><path d="M-236.6,50c34.2-6.8,39.8-12.4,46.6-46.6c6.8,34.2,12.4,39.8,46.6,46.6c-34.2,6.8-39.8,12.4-46.6,46.6   C-196.8,62.4-202.4,56.8-236.6,50z"/></g><g><path d="M-117.4,50C-82.6,43-77,37.4-70,2.6C-63,37.4-57.4,43-22.6,50C-57.4,57-63,62.6-70,97.4C-77,62.6-82.6,57-117.4,50z"/></g><g><path d="M1.8,50C37.2,42.9,42.9,37.2,50,1.8C57.1,37.2,62.8,42.9,98.2,50C62.8,57.1,57.1,62.8,50,98.2C42.9,62.8,37.2,57.1,1.8,50z   "/></g><text x="0" y="115" fill="#000000" font-size="5px" font-weight="bold" font-family="'Helvetica Neue', Helvetica, Arial-Unicode, Arial, Sans-serif">Created by Goodfather</text><text x="0" y="120" fill="#000000" font-size="5px" font-weight="bold" font-family="'Helvetica Neue', Helvetica, Arial-Unicode, Arial, Sans-serif">from the Noun Project</text></svg>