<svg xmlns="http://www.w3.org/2000/svg" data-name="Layer 1" viewBox="0 0 96 120" x="0px" y="0px"><path d="M49.953,36.965a1.267,1.267,0,1,0,0,2.533H63.517a1.269,1.269,0,0,0,.9-.37l3.164-3.164a4.54,4.54,0,1,0-1.792-1.791l-2.792,2.792Zm19.81-6.986a2.007,2.007,0,1,1-2.007,2.007A2.009,2.009,0,0,1,69.763,29.979Zm-24.451,13.2h8.312a1.267,1.267,0,1,1,0,2.533H45.312a1.267,1.267,0,0,1,0-2.533ZM64.45,54.048a4.548,4.548,0,0,0-4.359,3.274H51.368a1.267,1.267,0,0,0,0,2.533h8.723a4.54,4.54,0,1,0,4.359-5.807Zm0,6.547a2.007,2.007,0,1,1,2.007-2.007A2.009,2.009,0,0,1,64.45,60.6ZM68.1,52.128H62.3a1.267,1.267,0,1,1,0-2.533h5.8a1.267,1.267,0,1,1,0,2.533Zm13.313,18.3A4.548,4.548,0,0,0,77.049,73.7h-7.99l-4.879-4.88a1.27,1.27,0,0,0-.9-.371H57.818V65.214a1.266,1.266,0,0,0-1.266-1.266,15.948,15.948,0,0,1,0-31.9,1.266,1.266,0,0,0,1.266-1.266V27.55h5.466a1.27,1.27,0,0,0,.9-.371l4.879-4.88h7.99a4.54,4.54,0,1,0,0-2.533H68.535a1.27,1.27,0,0,0-.9.371l-4.879,4.88H57.818V19.6h6.468a1.267,1.267,0,1,0,0-2.533H57.818V14.359h3.541a1.267,1.267,0,0,0,0-2.533H57.818V7.994h3.371l4.387,4.386a1.266,1.266,0,0,0,.9.371h2.589a4.54,4.54,0,1,0,0-2.533H67L62.61,5.832a1.266,1.266,0,0,0-.9-.371h-3.9V2.767A1.266,1.266,0,0,0,56.552,1.5a46.886,46.886,0,0,0-8.657.808A1.266,1.266,0,0,0,46.872,3.4L45.2,17.312c-.784.29-1.56.612-2.321.963L31.863,9.621a1.269,1.269,0,0,0-1.5-.05A46.547,46.547,0,0,0,18.123,21.815a1.267,1.267,0,0,0,.05,1.5l8.654,11.017c-.351.762-.673,1.538-.963,2.321L11.953,38.32a1.266,1.266,0,0,0-1.093,1.023,46.78,46.78,0,0,0,0,17.314,1.266,1.266,0,0,0,1.094,1.023l13.909,1.671c.29.785.612,1.561.963,2.322L18.173,72.689a1.269,1.269,0,0,0-.05,1.5A46.558,46.558,0,0,0,30.366,86.429a1.267,1.267,0,0,0,1.5-.05L42.88,77.725c.763.351,1.539.673,2.321.963L46.872,92.6A1.266,1.266,0,0,0,47.9,93.692a46.9,46.9,0,0,0,8.657.808,1.266,1.266,0,0,0,1.266-1.267V90.539h3.9a1.266,1.266,0,0,0,.9-.371L67,85.782h2.065a4.541,4.541,0,1,0,0-2.533H66.472a1.266,1.266,0,0,0-.9.371l-4.387,4.386H57.818V84.174h3.541a1.267,1.267,0,0,0,0-2.533H57.818V78.934h6.468a1.267,1.267,0,1,0,0-2.533H57.818V70.983H62.76l4.879,4.88a1.27,1.27,0,0,0,.9.371h8.514a4.54,4.54,0,1,0,4.359-5.807Zm0-51.4A2.007,2.007,0,1,1,79.4,21.033,2.009,2.009,0,0,1,81.408,19.026ZM73.42,9.478a2.007,2.007,0,1,1-2.007,2.007A2.009,2.009,0,0,1,73.42,9.478Zm0,73.03a2.007,2.007,0,1,1-2.007,2.007A2.009,2.009,0,0,1,73.42,82.508ZM55.285,91.949a44.356,44.356,0,0,1-6.01-.585L47.622,77.607a1.268,1.268,0,0,0-.847-1.047,30,30,0,0,1-3.5-1.453,1.264,1.264,0,0,0-1.34.141l-10.9,8.559A43.962,43.962,0,0,1,20.745,73.516l8.558-10.9a1.27,1.27,0,0,0,.141-1.341,29.949,29.949,0,0,1-1.453-3.5,1.268,1.268,0,0,0-1.048-.847L13.188,55.277a44.247,44.247,0,0,1,0-14.554L26.945,39.07a1.265,1.265,0,0,0,1.047-.847,30,30,0,0,1,1.453-3.5,1.27,1.27,0,0,0-.141-1.341l-8.559-10.9A43.962,43.962,0,0,1,31.036,12.193l10.9,8.559a1.27,1.27,0,0,0,1.341.141,29.947,29.947,0,0,1,3.5-1.453,1.268,1.268,0,0,0,.847-1.047L49.275,4.636a44.34,44.34,0,0,1,6.01-.585V29.562a18.482,18.482,0,0,0,0,36.876ZM81.408,76.974a2.007,2.007,0,1,1,2.007-2.007A2.009,2.009,0,0,1,81.408,76.974Zm-3.7-27.624a4.54,4.54,0,1,0-4.359-5.807H60.562a1.27,1.27,0,0,0-.9.371l-4.879,4.88H44.945a1.267,1.267,0,0,0,0,2.533H55.311a1.27,1.27,0,0,0,.9-.371l4.88-4.88H73.354A4.548,4.548,0,0,0,77.713,49.35Zm0-6.547a2.007,2.007,0,1,1-2.007,2.007A2.009,2.009,0,0,1,77.713,42.8Z"/><text x="0" y="111" fill="#000000" font-size="5px" font-weight="bold" font-family="'Helvetica Neue', Helvetica, Arial-Unicode, Arial, Sans-serif">Created by Rifqi Khoirudin</text><text x="0" y="116" fill="#000000" font-size="5px" font-weight="bold" font-family="'Helvetica Neue', Helvetica, Arial-Unicode, Arial, Sans-serif">from the Noun Project</text></svg>