<svg xmlns="http://www.w3.org/2000/svg" version="1.1" viewBox="-5.0 -10.0 110.0 135.0">
 <path d="m31.344 21.723c-0.49219 0-0.94922 0.25391-1.207 0.66797-0.26172 0.41797-0.29297 0.9375-0.078125 1.3789l7.1719 15.059h-17.812l-3.8906-3.7734h-0.003906c-0.26563-0.25781-0.62109-0.40234-0.98828-0.40234h-8.8164c-0.46094 0-0.89453 0.21875-1.1602 0.58984-0.26953 0.37109-0.34375 0.85156-0.19922 1.2891l6.6406 19.961c0.19922 0.58203 0.74609 0.97266 1.3633 0.96875h25.273l-6.5078 18.93h0.003906c-0.14844 0.4375-0.078124 0.91797 0.19141 1.2891 0.26562 0.375 0.69922 0.59766 1.1562 0.59766h8.7305c0.38672 0 0.75781-0.15625 1.0273-0.43359l19.867-20.383h28.566c4.0508 0 6.4844-4.75 4.1133-8.0352l-1.168-1.6133c-4.0703-5.6367-10.598-8.9844-17.547-8.9844h-17.055l-15.711-16.664-0.003907 0.003907c-0.26953-0.28516-0.64844-0.44531-1.043-0.44141zm2.2578 2.8594h8.043l15.715 16.66c0.26953 0.28125 0.64062 0.44141 1.0312 0.44531h17.676c6.0312 0 11.691 2.8945 15.227 7.793l1.1719 1.6133c1.1094 1.5352 0.09375 3.5234-1.793 3.5234h-29.168l-0.003906-0.003907c-0.38281 0-0.75 0.15234-1.0195 0.42188l-19.867 20.383h-6.1289l6.5078-18.918c0.14844-0.43359 0.074218-0.91406-0.19141-1.2891-0.26953-0.375-0.69922-0.59375-1.1602-0.59766h-26.258l-5.6836-17.105h6.2539l3.8828 3.7734v0.003906c0.26562 0.25781 0.625 0.40234 1 0.39844h20.648c0.48828 0 0.94141-0.25 1.1992-0.66406 0.26172-0.41016 0.29297-0.92578 0.089844-1.3672z"/>
<text x="0.0" y="117.5" font-size="5.0" font-weight="bold" font-family="Arbeit Regular, Helvetica, Arial-Unicode, Arial, Sans-serif" fill="#000000">Created by Alzam</text><text x="0.0" y="122.5" font-size="5.0" font-weight="bold" font-family="Arbeit Regular, Helvetica, Arial-Unicode, Arial, Sans-serif" fill="#000000">from Noun Project</text></svg>